# xmcd CD database file
#
# Track frame offsets:
#	150
#	11322
#	18957
#	30025
#	39897
#	51062
#	60480
#	74167
#	85597
#	100520
#
# Disc length: 1490 seconds
#
# Revision: 6
# Processed by: cddbd v1.5.2PL0 Copyright (c) Steve Scherf et al.
# Submitted via: jetAudio 7
#
DISCID=6205d00a
DTITLE=Chet Atkins - The Guitar Genius
DYEAR=1985
DGENRE=Country
TTITLE0=Heartbreak Hotel
TTITLE1=Swanee River
TTITLE2=Blackjack
TTITLE3=I'll Be With You In Apple Blossom Time
TTITLE4=Daar's 'N Wind Wat Waat
TTITLE5=It's Now Or Never
TTITLE6=Out Of Nowhere
TTITLE7=Hidden Charm
TTITLE8=Even Tho'
TTITLE9=When Day Is Done
EXTD=
EXTT0=
EXTT1=
EXTT2=
EXTT3=
EXTT4=
EXTT5=
EXTT6=
EXTT7=
EXTT8=
EXTT9=
PLAYORDER=
